<?xml version="1.0" encoding="utf-8"?>
<!-- Generator: Adobe Illustrator 18.0.0, SVG Export Plug-In . SVG Version: 6.00 Build 0)  -->
<!DOCTYPE svg PUBLIC "-//W3C//DTD SVG 1.1//EN" "http://www.w3.org/Graphics/SVG/1.1/DTD/svg11.dtd">
<svg version="1.1" id="Layer_1" xmlns="http://www.w3.org/2000/svg" xmlns:xlink="http://www.w3.org/1999/xlink" x="0px" y="0px"
	 viewBox="0 0 32 32" enable-background="new 0 0 32 32" xml:space="preserve">
<g id="_x32__audio_simple_random">
	<g>
		<polygon fill="#FFFFFF" points="24.5,11.6 24.5,14.9 28.9,10.5 24.5,6.2 24.5,9.4 19.9,9.4 19.9,9.4 19.9,9.4 8,21.4 3.1,21.4 
			3.1,23.6 8.9,23.6 8.9,23.6 8.9,23.6 20.9,11.6 		"/>
		<polygon fill="#FFFFFF" points="12.9,15.6 14.5,14 8.9,8.4 8.9,8.4 8.9,8.4 3.1,8.4 3.1,10.6 8,10.6 		"/>
		<polygon fill="#FFFFFF" points="24.5,20.4 20.9,20.4 17.1,16.6 15.5,18.1 19.9,22.6 19.9,22.6 19.9,22.6 24.5,22.6 24.5,25.8 
			28.9,21.5 24.5,17.1 		"/>
	</g>
</g>
</svg>
